<svg xmlns="http://www.w3.org/2000/svg" fill="none" viewBox="6.5 54.27 283.87 196.8">
<g filter="url(#filter0_d_8_99)">
<path d="M6.50218 209.039C6.50218 194.61 10.361 179.595 18.0786 163.992C25.7962 148.221 35.611 134.044 47.523 121.461C59.435 108.878 72.1858 97.3852 85.7755 86.9832C99.3653 76.5812 112.368 68.528 124.783 62.8237C137.366 57.1194 147.6 54.2672 155.486 54.2672C158.506 54.2672 161.777 55.4416 165.301 57.7905C168.992 60.1393 170.837 62.9076 170.837 66.0953C170.837 69.1152 167.733 74.9034 161.526 83.4599C155.318 91.8486 147.768 101.412 138.876 112.149C130.152 122.887 121.344 133.96 112.452 145.369C103.56 156.777 96.0098 168.018 89.8021 179.091C83.5945 190.164 80.4907 199.14 80.4907 206.019C80.4907 208.703 81.8328 210.046 84.5172 210.046C89.5505 210.046 97.2681 205.012 107.67 194.946C118.072 184.712 129.565 172.38 142.148 157.952C154.899 143.355 168.069 128.843 181.659 114.414C195.416 99.8179 209.509 87.4865 223.938 77.42C238.534 67.1858 251.369 62.0687 262.442 62.0687C265.63 62.0687 268.985 62.9915 272.508 64.837C276.032 66.5147 277.793 68.4441 277.793 70.6252C277.793 72.6385 276.87 74.2323 275.025 75.4068C273.179 76.5812 269.992 78.2589 265.462 80.44C261.1 82.6211 255.815 85.4732 249.607 88.9965C243.4 92.352 235.262 97.7207 225.196 105.103C215.13 112.317 204.224 120.874 192.48 130.772C164.462 154.428 132.501 186.473 96.597 226.907C82.1684 243.013 62.7066 251.066 38.2115 251.066H37.9599C30.5778 251.066 23.5313 246.453 16.8203 237.225C10.2771 227.83 6.83773 218.434 6.50218 209.039Z" fill="#0E1D52"/>
</g>
<g filter="url(#filter1_d_8_99)">
<path d="M19.0852 209.039C19.0852 194.61 22.944 179.595 30.6616 163.992C38.3792 148.221 48.194 134.044 60.106 121.461C72.018 108.878 84.7688 97.3852 98.3586 86.9832C111.948 76.5812 124.951 68.528 137.366 62.8237C149.949 57.1194 160.183 54.2672 168.069 54.2672C171.089 54.2672 174.36 55.4416 177.884 57.7905C181.575 60.1393 183.42 62.9076 183.42 66.0953C183.42 69.1152 180.316 74.9034 174.109 83.4599C167.901 91.8486 160.351 101.412 151.459 112.149C142.735 122.887 133.927 133.96 125.035 145.369C116.143 156.777 108.593 168.018 102.385 179.091C96.1775 190.164 93.0737 199.14 93.0737 206.019C93.0737 208.703 94.4159 210.046 97.1002 210.046C102.133 210.046 109.851 205.012 120.253 194.946C130.655 184.712 142.148 172.38 154.731 157.952C167.482 143.355 180.652 128.843 194.242 114.414C207.999 99.8179 222.092 87.4865 236.521 77.42C251.117 67.1858 263.952 62.0687 275.025 62.0687C278.213 62.0687 281.568 62.9915 285.091 64.837C288.615 66.5147 290.376 68.4441 290.376 70.6252C290.376 72.6385 289.453 74.2323 287.608 75.4068C285.762 76.5812 282.575 78.2589 278.045 80.44C273.683 82.6211 268.398 85.4732 262.19 88.9965C255.983 92.352 247.845 97.7207 237.779 105.103C227.713 112.317 216.807 120.874 205.063 130.772C177.045 154.428 145.084 186.473 109.18 226.907C94.7514 243.013 75.2896 251.066 50.7945 251.066H50.5429C43.1608 251.066 36.1143 246.453 29.4033 237.225C22.8601 227.83 19.4207 218.434 19.0852 209.039Z" fill="#263A82"/>
</g>
<defs>
<filter id="filter0_d_8_99" x="0.90972" y="54.2671" width="282.476" height="207.984" filterUnits="userSpaceOnUse" color-interpolation-filters="sRGB">
<feFlood flood-opacity="0" result="BackgroundImageFix"/>
<feColorMatrix in="SourceAlpha" type="matrix" values="0 0 0 0 0 0 0 0 0 0 0 0 0 0 0 0 0 0 127 0" result="hardAlpha"/>
<feOffset dy="5.59248"/>
<feGaussianBlur stdDeviation="2.79624"/>
<feComposite in2="hardAlpha" operator="out"/>
<feColorMatrix type="matrix" values="0 0 0 0 0 0 0 0 0 0 0 0 0 0 0 0 0 0 0.25 0"/>
<feBlend mode="normal" in2="BackgroundImageFix" result="effect1_dropShadow_8_99"/>
<feBlend mode="normal" in="SourceGraphic" in2="effect1_dropShadow_8_99" result="shape"/>
</filter>
<filter id="filter1_d_8_99" x="13.4927" y="54.2671" width="282.476" height="207.984" filterUnits="userSpaceOnUse" color-interpolation-filters="sRGB">
<feFlood flood-opacity="0" result="BackgroundImageFix"/>
<feColorMatrix in="SourceAlpha" type="matrix" values="0 0 0 0 0 0 0 0 0 0 0 0 0 0 0 0 0 0 127 0" result="hardAlpha"/>
<feOffset dy="5.59248"/>
<feGaussianBlur stdDeviation="2.79624"/>
<feComposite in2="hardAlpha" operator="out"/>
<feColorMatrix type="matrix" values="0 0 0 0 0 0 0 0 0 0 0 0 0 0 0 0 0 0 0.25 0"/>
<feBlend mode="normal" in2="BackgroundImageFix" result="effect1_dropShadow_8_99"/>
<feBlend mode="normal" in="SourceGraphic" in2="effect1_dropShadow_8_99" result="shape"/>
</filter>
</defs>
</svg>