<svg width="91" height="94" viewBox="0 0 91 94" fill="none" xmlns="http://www.w3.org/2000/svg">
<path d="M57.9133 46.733C57.9133 39.7567 52.4743 34.1758 45.6756 34.1758C38.877 34.1758 33.438 39.7567 33.438 46.733C33.438 53.7092 38.877 59.2902 45.6756 59.2902C52.4743 59.2902 57.9133 53.7092 57.9133 46.733ZM64.2587 46.733C64.2587 57.4299 56.1003 65.8014 45.6756 65.8014C35.251 65.8014 27.0926 57.4299 27.0926 46.733C27.0926 36.0361 35.251 27.6646 45.6756 27.6646C56.1003 27.6646 64.2587 36.0361 64.2587 46.733ZM69.2444 26.7344C69.2444 29.5249 67.4314 31.3853 64.7119 31.3853C61.9925 31.3853 60.1795 29.5249 60.1795 26.7344C60.1795 23.9439 61.9925 22.0836 64.7119 22.0836C67.4314 22.0836 69.2444 24.409 69.2444 26.7344ZM45.6756 16.0375C40.2367 16.0375 28.9056 15.5724 24.3731 17.4328C21.2004 18.828 18.4809 21.6185 17.5744 24.8741C15.7615 29.5249 16.2147 41.152 16.2147 46.733C16.2147 52.314 15.7615 63.941 17.5744 68.5919C18.4809 71.8475 21.2004 74.638 24.3731 75.5681C28.9056 77.4285 40.6899 76.9634 45.6756 76.9634C50.6613 76.9634 62.4457 77.4285 66.9782 75.5681C70.1509 74.1729 72.4171 71.8475 73.7769 68.5919C75.5898 63.476 75.1366 51.8489 75.1366 46.733C75.1366 41.6171 75.5898 29.5249 73.7769 24.8741C72.8704 21.6185 70.1509 18.828 66.9782 17.8979C62.4457 15.5724 51.1146 16.0375 45.6756 16.0375ZM81.9353 46.733V62.0807C81.9353 67.6617 80.1223 73.2427 76.0431 77.8935C71.9639 82.0793 66.5249 83.9396 60.6327 83.9396H30.7185C25.2796 83.9396 19.8407 82.0793 15.3082 77.8935C11.6822 73.7078 9.41602 68.1268 9.41602 62.0807V46.733V31.3853C9.41602 25.3392 11.6822 19.7582 15.3082 15.5724C19.8407 11.8518 25.2796 9.52637 30.7185 9.52637H60.6327C66.0717 9.52637 71.5106 11.3867 76.0431 15.5724C79.6691 19.7582 81.9353 25.3392 81.9353 31.3853V46.733Z" fill="#132E55"/>
</svg>
