<?xml version="1.0" encoding="UTF-8"?>
<svg id="Layer_2" data-name="Layer 2" xmlns="http://www.w3.org/2000/svg" xmlns:xlink="http://www.w3.org/1999/xlink" viewBox="0 0 511.41 510.82">
  <defs>
    <style>
      .cls-1 {
        fill: url(#linear-gradient);
      }

      .cls-1, .cls-2, .cls-3, .cls-4, .cls-5, .cls-6, .cls-7, .cls-8, .cls-9, .cls-10, .cls-11, .cls-12, .cls-13, .cls-14, .cls-15, .cls-16, .cls-17, .cls-18, .cls-19, .cls-20, .cls-21, .cls-22, .cls-23, .cls-24, .cls-25, .cls-26, .cls-27, .cls-28, .cls-29, .cls-30, .cls-31, .cls-32, .cls-33 {
        stroke-width: 0px;
      }

      .cls-2 {
        fill: url(#linear-gradient-2);
      }

      .cls-3 {
        fill: url(#linear-gradient-3);
      }

      .cls-4 {
        fill: #616369;
      }

      .cls-5 {
        fill: #714964;
      }

      .cls-6 {
        fill: #5e425e;
      }

      .cls-7 {
        fill: #273e4d;
      }

      .cls-8 {
        fill: #7c4059;
      }

      .cls-9 {
        fill: #5b80b1;
      }

      .cls-10 {
        fill: #0880b4;
      }

      .cls-11 {
        fill: #424057;
      }

      .cls-12 {
        fill: #232e39;
      }

      .cls-13 {
        fill: #1ea8cb;
      }

      .cls-14 {
        fill: #122030;
      }

      .cls-15 {
        fill: #c5568a;
      }

      .cls-16 {
        fill: #d95b9e;
      }

      .cls-17 {
        fill: #dcdbdf;
      }

      .cls-18 {
        fill: #dacbd0;
      }

      .cls-19 {
        fill: #bfbbbe;
      }

      .cls-20 {
        fill: #ae5175;
      }

      .cls-21 {
        fill: #a86c83;
      }

      .cls-22 {
        fill: #adc4d8;
      }

      .cls-23 {
        fill: #8b3e51;
      }

      .cls-24 {
        fill: #8bb2d0;
      }

      .cls-25 {
        fill: #3075a4;
      }

      .cls-26 {
        fill: #815772;
      }

      .cls-27 {
        fill: #f2b8c1;
      }

      .cls-28 {
        fill: #ede1e2;
      }

      .cls-29 {
        fill: #e680b4;
      }

      .cls-30 {
        fill: #fefcfb;
      }

      .cls-31 {
        fill: #fdcdcc;
      }

      .cls-32 {
        fill: #e9eff4;
      }

      .cls-33 {
        fill: #0493c1;
      }
    </style>
    <linearGradient id="linear-gradient" x1="318.51" y1="206.25" x2="245.29" y2="242.74" gradientUnits="userSpaceOnUse">
      <stop offset="0" stop-color="#e582b2"/>
      <stop offset="1" stop-color="#dd60a0"/>
    </linearGradient>
    <linearGradient id="linear-gradient-2" x1="257.88" y1="273.21" x2="267.55" y2="308.84" gradientUnits="userSpaceOnUse">
      <stop offset="0" stop-color="#ded9da"/>
      <stop offset="1" stop-color="#b8c6cf"/>
    </linearGradient>
    <linearGradient id="linear-gradient-3" x1="405.48" y1="284.89" x2="190.5" y2="344.09" gradientUnits="userSpaceOnUse">
      <stop offset=".07" stop-color="#1698c3"/>
      <stop offset="1" stop-color="#0472a9"/>
    </linearGradient>
  </defs>
  <g id="Layer_1-2" data-name="Layer 1">
    <g>
      <g id="Background">
        <rect class="cls-5" width="511.41" height="510.82"/>
        <path class="cls-5" d="m.02,506.33V0h510.82c-.06,117.56.08,235.12,0,352.68-1.28,4.63-1.79,9.96-2,14.72-1.03,23.27.7,129.95-.5,136.68-.04.2-1.15,1.32-1,2.24-44.14.97-88.3.37-132.44.5-2.4,0-5.58.99-7.98,1-59.29.12-118.55-1.2-177.84-1.5-63.03-.31-126.04-.04-189.06,0Z"/>
        <path class="cls-23" d="m510.84,502.84c-.07,2.66.05,5.32,0,7.98H.02c-.07-1.32.1-2.68,0-3.99l189.06-.5c59.28.29,118.55,1.62,177.84,1.5,2.4,0,5.58-.99,7.98-1,44.15-.12,88.3.47,132.44-.5,2.48-.18,2.47-1.8,3.49-3.49Z"/>
        <path class="cls-8" d="m510.84,502.84c-1.03,1.69-1.01,3.31-3.49,3.49-.15-.93.96-2.05,1-2.24,1.19-6.73-.53-113.41.5-136.68.21-4.76.72-10.09,2-14.72-.03,48.93,1.3,101.8,0,150.15Z"/>
        <path class="cls-8" d="m189.08,506.33L.02,506.83c-.01-.17,0-.33,0-.5,63.03-.04,126.03-.31,189.06,0Z"/>
        <path class="cls-11" d="m99.29,375.63c.29,6.82-1.8,13.91-1,20.7-.08.48-1.42.02-1.5.5-1.16,7.39-7.11,25.85,4.24,27.69,13.71,2.22,30.45-3.6,43.9-6.48.49-.1.01-1.4.5-1.5,9.88-2.05,142.16,3.64,168.61,0,7.13,1.78,48.92-.74,51.38,0,.5.15,0,1.34.5,1.5,12.27,3.84,23.94,9.31,37.41,7.48,9.47-1.28,9.76-6.87,10.73-14.97.02-.16-.02-.33,0-.5,0-.08.8.3,1.5-.75-2.37-4.97-1.52-15.61-1.5-22.7,5.09,6.31,16.15,29.64,13.47,36.67-3.68,9.64-42.41,7.62-51.63,6.73-17.3-1.67-19.97-8.36-38.91-7.98-2.5.05-19.29,1.6-20.45,2.49l-1.25,7.98c1.89-10.92-4.82-11.56-5.99-4.99-4.78-.03-3.8,1.83-3.99,2-4.85.23-9.63-.14-14.47-.5-2.87-.21-5.69.06-8.48-1,8.56-.3,17.14-.51,25.69-1-.09-3.7,5.37-5.51,2-6.48-2.29-.66-41.77-.17-47.64,0-2.09.06-9.14-.24-9.73,0-.33.14-.27,1.76-.75,2-2.61,1.26-4.69,1.51-5.49,2,.39-2.49,3.35-2.88,2.24-3.99-8.54.61-41.63-.76-44.9,0-3.27.76-4.9,4.52-5.24,7.48l-6.98-1c-.02-.63.85-2.68-.25-2.99-3.48-.37-4.97.49-5.24.5-25.77.62-37.01,4.5-50.63,5.49-4.51.33-33.15.36-36.91,0-15.29-1.48-18.07-8.61-15.21-23.2.43-2.18,12.97-33.3,14.47-34.42.44-.33,1.22-.47,1.5,0,.03,1.08-.05,2.17,0,3.24Z"/>
        <path class="cls-12" d="m98.79,409.05c-.15,1.93-.65,7.3,0,8.73,2.75,6.07,16.4-1.95,21.7-1.75,1.42-2.85,7.08-3.87,7.23-6.98,15.97.09,31.92.43,47.89.5,0,.34-.12.91.25,1,9.73,2.31,174.19-1.78,200.04,0-3.59,4.48,19.62,10.27,21.95,10.48,16.29,1.44,4.12-12.38,16.21-10.48-.96,8.1-1.26,13.68-10.73,14.97-13.47,1.83-25.15-3.64-37.41-7.48-.5-.16,0-1.35-.5-1.5-2.46-.74-44.25,1.78-51.38,0-26.45,3.64-158.73-2.05-168.61,0-.49.1-.01,1.39-.5,1.5-13.45,2.89-30.18,8.71-43.9,6.48-11.35-1.84-5.4-20.29-4.24-27.69.07-.48,1.42-.02,1.5-.5-.8-6.79,1.29-13.88,1-20.7h.5c-.06,9.2.91,18.44.5,27.69-.01.3-1.31,3.36-1.5,5.74Z"/>
        <path class="cls-26" d="m246.45,424.52c-4.39,2.7-7.69,6.37-11.72,9.48-3.18,2.46-6.69,2.17.25,2.49,6.09.28,8.81-1.98,6.24,6.48h-43.9c-1.31-7.85,1.19-7.55,1.25-7.98.36-2.58-.28-4.54,0-6.98.33-2.96,1.97-6.72,5.24-7.48,3.27-.76,36.36.61,44.9,0,1.1,1.11-1.86,1.5-2.24,3.99Z"/>
        <path class="cls-26" d="m195.07,78.32c0-.32,0-1.17,0-1.5.09-3.17.96-6.49.5-9.73l2.24-1.75c14.12,2.12,40.2-3.89,30.18,5.74,6.58,7.74-3.21,7.9-3.49,8.48-.65,1.35,4.46,8.34,3.74,8.73h-32.42c0-3.28-.65-6.74-.75-9.98Z"/>
        <path class="cls-26" d="m282.36,428.01c2.79,1.06,5.61.79,8.48,1-1.33,2.49,7.84,4.24,10.48,4.49,8.54.81,6.81-2,7.23-2,.52.56-.13,1.01.75,1.5-.78,3.48-5.68,1.38-6.24,11.97-7.88-.58-36.82.78-39.91,0-3.63-.92-8.47-11.25,9.23-9.98l1-.75c-5.48-6.43-10.19-.64-11.47-5.24.08,0,.61-1.49.75-1.5,1.28-.09,11.54.78,19.7.5Z"/>
        <path class="cls-26" d="m283.86,80.81c2.07.65,7.89.7,10.97,1,2.63.25,5.37.54,7.98,1-.05.27.88,1.83-.75,5.49-4.19-.12-34.63,1.2-35.67-.25.92-2.02.32-4.16.5-6.24.02-.27,1.6.19,1-4.99,2.48-.48.52,1.74,2.74,2.49,2.52.86,13.25-.2,7.23-4.49,9.19.55,3.14,1.45,4.99,6.24.4,1.04.95-.26,1-.25Z"/>
        <path class="cls-21" d="m302.82,82.81c-2.61-.46-5.35-.75-7.98-1l7.48-.75c-.24-1.69.42-11.75-.25-12.22-.25-.18-6.01-.06-6.24.25-.44.62-1.33,6.26,4.74,4.74v1h-6.48c3.44-9.08-3.32-5.23-10.48-5.99l.25,11.97s-.6,1.29-1,.25c-1.85-4.79,4.2-5.68-4.99-6.24-14.5-.87-3.84-1.07,3.74-1,5.8-10.24-17.69-1.06-17.96-6.98,5.39.89,42.54-1.22,44.4,0,3.28,2.15-4.06,1.99-4.24,2.24-.4.57.3,6.51-1,13.72Z"/>
        <path class="cls-6" d="m261.91,429.01c1.28,4.6,5.99-1.19,11.47,5.24l-1,.75c-1.09-2.53-10.08-1.2-16.21-1.5-.19,0-2.64-.97-3.74-1v-2.99c2.94-1.09,6.43-.22,9.48-.5Z"/>
        <path class="cls-6" d="m246.45,424.52c-.06.37,1.05,5.8.5,7.48-3.78.16-7.79,3.45-12.22,2.99l.25,1.5c-6.94-.32-3.43-.04-.25-2.49,4.03-3.11,7.34-6.77,11.72-9.48Z"/>
        <path class="cls-30" d="m315.29,432.5l-.75,1c-1.78-1.45-3.31.58-5.24-.5.3-1.34-.27-3.95,0-5.49,1.16-6.57,7.88-5.93,5.99,4.99Z"/>
        <path class="cls-30" d="m252.43,426.51c.02,1-.01,2,0,2.99v2.99c-.26,0-1.12.4-5.24.5-.4,0-.2-1-.25-1,.55-1.68-.56-7.11-.5-7.48.79-.49,2.87-.73,5.49-2,.8,1.24.47,2.64.5,3.99Z"/>
        <path class="cls-30" d="m191.57,427.01c.24,6.5.75,6.89-4.99,6.48-1.12-1.13-.2-7.14-.5-8.98.26,0,1.76-.87,5.24-.5,1.1.32.23,2.37.25,2.99Z"/>
        <path class="cls-15" d="m188.58,75.82c.35.05.1,1.66,6.48,1,0,.32,0,1.18,0,1.5-4.53-1.31-5.1,6.21-11.22,3.49-1.06-.47-.93-5.46-.75-6.48,1.71,1.03,3.71.23,5.49.5Z"/>
        <path class="cls-15" d="m236.97,74.83c2.25.56,4.43,2.05,5.99-.5,4.54,10.14-8.83,12.39-5.99.5Z"/>
        <path class="cls-15" d="m370.16,75.33c.1.89.18,5.98,0,6.24-.38.54-8.58,3.47-6.98-6.73l6.98.5Z"/>
        <path class="cls-15" d="m122.73,75.33c3.55,8.57-5.72,6.85-6.24,6.48-.38-.27-.36-5.62-.25-6.48h6.48Z"/>
        <path class="cls-15" d="m383.63,75.33c.14,1.13,1.06,5.44.5,6.24-.22.31-5.98.43-6.24.25-.93-.66.11-5.4.25-6.48h5.49Z"/>
        <path class="cls-16" d="m342.73,74.83c1.6,10.25-8.08,10.24-6.48,0h6.48Z"/>
        <path class="cls-16" d="m311.55,73.83c5.95-2.66,4.48,8.13,3.99,8.48-.19.14-4.49.1-4.74-.25-.24-.34-.3-7.76.75-8.23Z"/>
        <path class="cls-15" d="m356.19,75.33c.1.83.18,5.98,0,6.24-.35.5-7.78,3.5-5.99-6.24h5.99Z"/>
        <path class="cls-16" d="m136.2,75.33c.73,2.77.23,6.03,0,6.24-.38.34-5.5.42-5.74.25-.38-.27-.36-5.62-.25-6.48h5.99Z"/>
        <path class="cls-6" d="m198.56,428.01c-.28,2.44.36,4.4,0,6.98-5.38-.98-2.08-3.03-3.24-3.99-1.52-1.26-5.32,5.93-8.73,2.49,5.74.4,5.23.01,4.99-6.48l6.98,1Z"/>
        <path class="cls-16" d="m109.27,75.82c1.96,8.8-5.27,6.32-5.74,5.99-.95-.67.14-4.96.25-5.99h5.49Z"/>
        <path class="cls-16" d="m267.9,76.82c.6,5.18-.97,4.72-1,4.99-4.71,2.72-3.81-7.28-3.49-7.73.25-.36,4.07-.37,4.24-.25.52.37.17,2.28.25,2.99Z"/>
        <path class="cls-20" d="m171.87,75.33c3.81-.82,4.88,6.68,0,5.49-2.66-.65-1.88-5.08,0-5.49Z"/>
        <path class="cls-27" d="m370.16,75.33l-6.98-.5c.62-3.97,6.38-2.74,6.73-2.49.52.37.17,2.28.25,2.99Z"/>
        <path class="cls-27" d="m109.27,75.82h-5.49c.02-.17-1.43-2.75.25-3.49,4.64-2.06,4.71,1.1,5.24,3.49Z"/>
        <path class="cls-27" d="m122.73,75.33h-6.48c.76-6.06,8.9-2.6,6.48,0Z"/>
        <path class="cls-20" d="m149.42,75.82c3.17-.69,4.35,4.45,1.5,4.99-3.35.63-4.25-4.39-1.5-4.99Z"/>
        <path class="cls-27" d="m342.73,74.83h-6.48c.61-3.91,5.88-3.91,6.48,0Z"/>
        <path class="cls-27" d="m383.63,75.33h-5.49c.04-.29-1.42-1.66.25-2.99,8.39-.66,5.11,2.01,5.24,2.99Z"/>
        <path class="cls-31" d="m188.58,75.82c-1.78-.27-3.78.53-5.49-.5.89-5.13,6.52-3.9,5.49.5Z"/>
        <path class="cls-27" d="m356.19,75.33h-5.99c.03-.15-.52-2.54.25-2.99,1.73-1.02,5.25-.88,5.74,2.99Z"/>
        <path class="cls-27" d="m136.2,75.33h-5.99c.38-3.01,1.99-4.42,5.24-2.99,1.23.54.53,2.16.75,2.99Z"/>
        <path class="cls-27" d="m242.96,74.33c-1.56,2.55-3.73,1.06-5.99.5.77-3.21,4.72-3.32,5.99-.5Z"/>
        <path class="cls-20" d="m407.33,77.32c.11,0,1.72,1.14,1.75,1.25.05.23-2.68,3.18-3.49,1.5-.6-1.24,1.56-2.73,1.75-2.74Z"/>
        <path class="cls-15" d="m345.97,430c.53-.19,2.27.14,2.24.75-.05,1.43-5.28.34-2.24-.75Z"/>
        <path class="cls-20" d="m321.52,442.48c.25,0,1.21,1.18.5,1.5-1.65.73-1.35-1.47-.5-1.5Z"/>
        <path class="cls-14" d="m414.06,410.05c-.02.16.02.34,0,.5-12.09-1.9.08,11.91-16.21,10.48-2.33-.21-25.54-6-21.95-10.48-25.85-1.78-190.31,2.31-200.04,0-.37-.09-.25-.66-.25-1,79.48.34,158.97-.43,238.45.5Z"/>
        <path class="cls-14" d="m127.72,409.05c-.15,3.11-5.81,4.13-7.23,6.98-5.3-.2-18.95,7.81-21.7,1.75-.65-1.43-.15-6.8,0-8.73,9.64.04,19.29-.05,28.93,0Z"/>
        <path class="cls-5" d="m282.36,428.01c-8.16.28-18.43-.58-19.7-.5-.14,0-.66,1.49-.75,1.5-3.05.28-6.54-.59-9.48.5-.01-1,.02-2,0-2.99,9.1.04,10.66,3.33,9.98-5.99,5.87-.17,45.35-.66,47.64,0,3.38.98-2.08,2.79-2,6.48-8.55.48-17.13.7-25.69,1Z"/>
        <path class="cls-5" d="m262.41,420.53c.69,9.32-.87,6.02-9.98,5.99-.03-1.35.3-2.75-.5-3.99.48-.23.42-1.86.75-2,.58-.24,7.64.06,9.73,0Z"/>
        <path class="cls-5" d="m305.31,429.51c-1.33,1.13-2.86,2.63-3.99,3.99-2.64-.25-11.81-2-10.48-4.49,4.83.36,9.61.73,14.47.5Z"/>
        <path class="cls-6" d="m309.3,427.51c-.27,1.54.3,4.14,0,5.49-.88-.49-.23-.93-.75-1.5-.42,0,1.3,2.81-7.23,2,1.13-1.36,2.66-2.86,3.99-3.99.19-.17-.79-2.03,3.99-2Z"/>
        <path class="cls-5" d="m294.84,81.81c-3.08-.29-8.9-.34-10.97-1l-.25-11.97c7.15.75,13.91-3.1,10.48,5.99h6.48v-1c-6.07,1.52-5.18-4.11-4.74-4.74.22-.31,5.98-.43,6.24-.25.67.47.01,10.54.25,12.22l-7.48.75Z"/>
        <path class="cls-21" d="m296.08,75.82c.18-.12,1.05-.08,1.25.25.49,10.06-2.86.85-1.25-.25Z"/>
      </g>
      <g>
        <path class="cls-18" d="m100.29,256.41c-.76,12.68-.7,25.47-.5,38.16,0,.57.96-1.05,1,2.24-1.63-3.52-5.48,8.01-6.98,13.47-2-7.86-.69-18.05-1-26.69-.36-10.21-1.7-20.45-2-30.68,2.17,1.35,6.88,2.91,9.48,3.49Z"/>
        <path class="cls-12" d="m100.78,296.81c.17,14.68-.95,29.27-1,43.9l-10.48-.75c.72-9.98,1.83-20.01,4.49-29.68,1.5-5.46,5.36-16.99,6.98-13.47Z"/>
        <g>
          <g>
            <path class="cls-12" d="m336.74,166.12c-1.18,1.41-4.6-.65-4.49,1.5-23.32.77,1.5,5.13,8.98,6.98,16.68,4.14,33.43,7.92,50.13,11.97,4.51.2,1.66-2.12,10.23-7.48,2.33,1.76,4.75,3.61,6.98,5.49,6.12,5.13,12.28,10.25,19.45,13.97-3.6,5.29-9.36,9.22-14.47,12.97-1.65-.36-9.38-1.57-10.48-1.5q-15.96,4.49-31.93,8.98c-49.84,1.66-99.66,7.33-148.41,17.96-22.37,7.62-61.39,12.22-78.82,17.46-.6.18-2.05.59-1.75,1.5-4.21.64-8.75,1.76-12.97,2-3.9.22-24.66-.46-27.94-1-.06,0,.4-.19-1-.5-2.6-.58-7.31-2.14-9.48-3.49-.3-.19-4.65-3.56-4.24-3.99l17.21-5.74c-2.24-2.1-17.53-7.99-18.21-8.73-5.96-6.5,13.59-17.62,18.71-17.71-5.32.85-11.16-8.54-14.97-12.97.02-3.08-.03-6.15,0-9.23,3.28,3.37,6.65,6.65,9.98,9.98,1.48,1.48,2.64,3.36,4.49,4.49.08,1.12.55,7.23,1.25,7.48,2.7-.88,6.49-2.27,9.23-2.49,6.46-.54,13.03.46,19.45.5v14.72c-.55,1.16-10.75,2.14-12.72,4.24-.96,1.02-.91,2.87,0,2.99,1.2.16,6.74-9.14,22.45-2.49l.25-18.96c15.8.37,31.62.4,47.39,2,24.56-1.41,103.68,4.34,121.47-7.48,4.17-2.77,5.03-4.49,3.74-9.48-2.1-8.17-14.65-14.99-21.7-18.46-5.39-2.65-17.13-3.07-12.72-11.22,5.7-10.53,44.29-5.02,54.87-4.24Z"/>
            <g>
              <path class="cls-29" d="m405.58,176.59c-.14.15.27,1.19-.25,1.5-.27.16-1.16-.62-3.74,1-8.56,5.36-5.72,7.69-10.23,7.48-16.7-4.05-33.45-7.83-50.13-11.97-13.98-4.64,4.91-3.68,9.73-3.49,11.45.45,23,2.59,34.42,3.49,6.7.53,13.93-.9,20.2,2Z"/>
              <path class="cls-16" d="m332.25,167.61c14.77-.49,43.01,3.36,59.36,4.99,5.14.51,10.34.62,15.46,1.5.17.76-.98,1.97-1.5,2.49-6.27-2.9-13.51-1.47-20.2-2-11.42-.9-22.97-3.04-34.42-3.49-4.82-.19-23.71-1.15-9.73,3.49-7.48-1.86-32.3-6.21-8.98-6.98Z"/>
            </g>
            <path class="cls-13" d="m428.03,198.54c-7.17-3.72-13.33-8.84-19.45-13.97,9.86.85,14.5,5.98,21.45,12.22-1.51,2.21-1.92,1.64-2,1.75Z"/>
          </g>
          <g>
            <path class="cls-12" d="m411.57,152.65c.44.11,1.24-.24,1.5.25.34,18.86-8.32,18.87-7.98,19.95.14.44,1.68-.13,2,1.25-5.12-.87-10.32-.98-15.46-1.5v-1.5c.71-.14,1.32.3,2-.75.19-2.81,4.06-16.8,5.74-17.71,3.03.16,10.6-.4,12.22,0Z"/>
            <g>
              <path class="cls-10" d="m247.94,208.02c-.18-.05-.1,1.83-2.24-2q-25.57,2.49-51.13,4.99c13.24-18.85,30.57-36.34,53.88-40.66,0,2.75,1.17,10.07,3.74,11.22,3.2,1.43,31.99,3.26,37.91,5.49,12.98,4.87,17.69,24.09-15.46,15.96-14.44-3.54-26.76-12.39-36.42-23.45l9.73,28.43Z"/>
              <path class="cls-33" d="m191.08,217c.06-.54.9-3.34,1-3.49.1-.15.2.77,2.49-2.49q25.57-2.49,51.13-4.99c2.14,3.82,2.06,1.95,2.24,2,8.38,2.18,42.44,4.13,51.13,2.99,8.05-1.05,14.1-3.01,17.21-10.97,1.29,4.99.43,6.71-3.74,9.48-17.79,11.83-96.91,6.07-121.47,7.48Z"/>
            </g>
            <path class="cls-13" d="m192.07,213.51c-.1.15-.93,2.96-1,3.49-15.77-1.6-31.59-1.62-47.39-2-3.3-.08-6.62-.48-9.98-.5-6.42-.04-13-1.04-19.45-.5-5.13-5.24,6.52-4.26,17.21-3.99,20.17.51,40.36,3.92,60.61,3.49Z"/>
            <g>
              <path class="cls-17" d="m411.57,152.65c-1.62-.4-9.2.16-12.22,0-1.68.91-5.54,14.9-5.74,17.71-.67,1.04-1.29.61-2,.75-2.71.52-47.07-4.41-54.87-4.99-10.58-.78-49.17-6.29-54.87,4.24-4.41,8.15,7.33,8.57,12.72,11.22,7.05,3.47,19.6,10.29,21.7,18.46-3.11,7.96-9.16,9.92-17.21,10.97-8.69,1.13-42.76-.82-51.13-2.99l-9.73-28.43c9.66,11.06,21.97,19.91,36.42,23.45,33.16,8.13,28.44-11.09,15.46-15.96-5.92-2.22-34.71-4.05-37.91-5.49-2.58-1.15-3.75-8.47-3.74-11.22-23.31,4.31-40.63,21.8-53.88,40.66-2.3,3.27-2.4,2.35-2.49,2.49-20.25.43-40.44-2.98-60.61-3.49-10.69-.27-22.34-1.25-17.21,3.99-2.74.23-6.53,1.61-9.23,2.49-.7-.25-1.17-6.36-1.25-7.48-1.47-20.94.18-58.7-1-82.06-.24-.4-1.26-.4-1.5,0-1.99,3.33-2.08,68.8-2,77.57-3.33-3.32-6.69-6.61-9.98-9.98.34-31.57,13.15-79.04-2.49-101.02,11.74-.8,13.93,4.64,14.72-3.74l298.31-.5c.93.37,3.89,9.28,4.24,10.73.6,2.48,7.75,47.84,7.98,50.38.08.92.02,1.47-.5,2.24Z"/>
              <g>
                <path class="cls-8" d="m391.61,171.1v1.5c-16.36-1.63-44.59-5.48-59.36-4.99-.11-2.15,3.31-.09,4.49-1.5,7.81.58,52.17,5.51,54.87,4.99Z"/>
                <g>
                  <path class="cls-7" d="m246.7,101.76l18.21.25c4.24,12.26,9.01,24.52,15.71,35.67q.62-17.83,1.25-35.67l17.71-.25c23.04,39.13,23.77,55.42,14.22.25l18.21-.25c.39,18.16,2.83,36.14,5.24,54.12l-30.68.25c-14.5-43.28-14.84-53.51-11.72-.25l-25.69.75c-8.91-17.58-17.19-35.84-22.45-54.87Z"/>
                  <path class="cls-7" d="m153.91,102.76l21.7.25,3.99,53.88-21.7.25q-10.48-12.97-20.95-25.94.37,12.6.75,25.19l-22.2.25q-1.37-26.31-2.74-52.63l19.7-.75,20.95,25.94q.25-13.22.5-26.44Z"/>
                  <path class="cls-7" d="m189.83,102.76h50.88l1,14.97c-4.36.48-30.07-.93-31.68.75-.6.63-.23,6.54.25,6.73,18.33,1.02,20.43-4.47,19.21,9.23l-16.21.25-.25,9.23,37.66.25.25,12.22q-28.06.37-56.12.75l-4.99-54.37Z"/>
                  <path class="cls-7" d="m358.94,98.27c8.99-.42,24.71,3.31,20.95,15.46-3.56-.13-17.51-5.71-18.71-.75-3.17,13.16,39.27,1.84,38.66,38.16-5.5.05-11.66-.92-15.96,3.49-3.21-27.55-41.64-17.8-43.65-37.66-1.13-11.16,8.33-18.22,18.71-18.71Z"/>
                  <path class="cls-10" d="m113.01,170.61c2.92.32,9.46-.44,10.97,0,1.49.43,18.02,20.06,21.95,21.95l-1.25-21.2,13.22-.75q1.37,17.58,2.74,35.17l-16.21.25-18.46-16.46,1.75,16.71-13.72.25c-1.01-3.96-2.64-35.19-1-35.92Z"/>
                  <path class="cls-10" d="m175.86,171.1c4.37.87,35.6-1.25,36.67.25.17.23.07,5.51-.25,5.74-.91.64-21.52-.71-22.2.25-.2.28-.52,6.06,1.25,6.24,1.87.24,13.74-.42,14.22.25.15.21.08,5-.25,5.24-.86.61-14.41-.99-15.21.75.12,2.28,1.9,15.27.75,15.71l-13.72-.25c.28-4.03-2.91-33.44-1.25-34.17Z"/>
                  <path class="cls-28" d="m103.78,209.02c-1.85-1.13-3.01-3.01-4.49-4.49-.09-8.77,0-74.24,2-77.57.24-.4,1.26-.4,1.5,0,1.18,23.36-.47,61.12,1,82.06Z"/>
                  <path class="cls-7" d="m355.94,143.17c3.98.44,15.51,1.82,16.71,6.24,2.59,9.52-8.83,6.4-14.22,7.73l-2.49-13.97Z"/>
                  <path class="cls-33" d="m263.16,171.1c.33-.11,6.68-.17,6.98,0,.26.14,1.91,5.49,1.75,5.74-.71,1.06-10.47-.79-12.22-.75.34-.84,3.2-4.89,3.49-4.99Z"/>
                </g>
              </g>
            </g>
          </g>
          <path class="cls-28" d="m143.69,215l-.25,18.96c-15.71-6.65-21.25,2.65-22.45,2.49-.91-.12-.96-1.97,0-2.99,1.97-2.1,12.17-3.08,12.72-4.24v-14.72c3.36.02,6.68.42,9.98.5Z"/>
        </g>
        <g>
          <path class="cls-13" d="m421.54,237.45l-12.97-20.95c3.5-1.52,7.2-2.07,10.48-3.99.46.16,1.74.32,2,.75,1.37,8.03.63,16.1.5,24.19Z"/>
          <path class="cls-32" d="m412.56,292.82c-.35.84-.44,2.94-.5,3.99-6.15,6.96-1.16,7.17,0,10.97.64,2.1.41,3.43.5,5.49-3.34-2.52-6.14-8.99-7.98-12.97,1.71-2.41,6.59-6.23,7.48-7.98l.5.5Z"/>
          <path class="cls-13" d="m412.06,307.79c-1.16-3.8-6.15-4.01,0-10.97-.21,3.52,1.44,7.42,0,10.97Z"/>
          <path class="cls-1" d="m371.16,218.99c-11.16,3.98-22.43,8.05-33.92,10.97-29.67,7.55-79.83,11.99-111.99,15.46-13.69,1.48-27.72,1.37-41.4,2.99-14.38,1.71-28,5.42-41.65,7.48-.3-.91,1.15-1.32,1.75-1.5,17.43-5.24,56.45-9.84,78.82-17.46,48.74-10.63,98.56-16.3,148.41-17.96Z"/>
          <path class="cls-12" d="m277.88,330.73c-1.69,3.84-4.17,8.51-6.48,11.97-1.48,2.21-2.34,4.29-2.49,4.49-9.62,12.45-23.28,19.97-36.91,26.94-16.88,5.57-35.49,1.55-50.88-6.48-1.8-2.86-4.75-4.25-4.99-4.49-1.35-1.33-4.22-4.45-3.74-5.49,11.48,12.49,44.21,12.31,58.86,7.48,14.79-4.87-4.78-2.18-14.47-2.99-10.49-.88-21.69-4.88-29.93-11.47-10.09-8.08-11.52-10.84,1.75-3.99,15.3,9.64,38.13,9.94,55.37,6.48,24.04-4.81,29.59-22.08,32.67-22.95,1.27-.36,1.18.49,1.25.5Z"/>
          <path class="cls-29" d="m198.06,319.26c-.29.53-.94,1.62-.25,2,1.89,1.02,39.16-.12,42.9,2.49,3.06,2.14,1.54,24.4,3.24,29.43-17.24,3.45-40.08,3.15-55.37-6.48q23.57.5,47.14,1c1.2-.56.79-7.1.75-8.48-.07-2.23-.7-5.48-1-7.98-.11-.95.3-4.6-.25-4.99l-125.46-1c-.69-1.15-.98-5.94.25-6.48,4.02-1.79,76.96,1.01,88.05.5Z"/>
          <path class="cls-29" d="m235.47,331.23c.3,2.5.93,5.75,1,7.98q-63.6-.37-127.21-.75l.25-7.23h125.96Z"/>
          <path class="cls-16" d="m225,306.29c-.06.91.16,2.96,0,3.24-.24.42-2.39.59-2.99.75-10.22,2.75-92.13-.03-111.49,1l-.75-5.24q57.24-.62,114.49-1.25l.75,1.5Z"/>
          <g>
            <path class="cls-29" d="m303.32,385.11c3.08-1.76,5.99-4.05,8.98-5.99h91.54v7.48c-13.18-2.44-95.03,1.57-99.77,0-.2-.06-.37-.91-.75-1.5Z"/>
            <path class="cls-29" d="m327.76,367.15c9.19,1.7,73.45-2.21,76.57,0,.34.24.72,5.45-.5,5.99-3.77,1.67-72.15-1.29-82.56,0-.28-1.59,4.79-5.92,6.48-5.99Z"/>
          </g>
          <g>
            <path class="cls-2" d="m269.89,279.85c.12.07.38-.07.5,0l2.74,1.5c.91,2.96,3.91,4.41,5.74,6.48,10.81,12.31,8.48,19.66,12.97,34.67-4.76-5.37-7.24-8.99-13.97-12.22-5.62-5.53-24.44-7.28-32.67-4.99-.51-.42-.2-5.35-.25-6.48-.4-9.94.17-19.98.25-29.93,1.18-.67,22.82,9.84,24.69,10.97Z"/>
            <path class="cls-28" d="m244.95,298.81c.05,1.13-.26,6.07.25,6.48,8.23-2.29,27.05-.54,32.67,4.99-25.88-12.41-54.45,2.38-79.82,8.98-11.09.51-84.02-2.28-88.05-.5-1.23.55-.94,5.34-.25,6.48-2.48.09-1.88-6.35-.25-6.98,18.16-1.09,80.18,1.44,90.29,0,3.09-.44,15.19-5.7,19.45-6.98,1.11-.34,3.03.75,2.74-1,.6-.16,2.75-.32,2.99-.75.16-.28-.06-2.33,0-3.24.27-3.89-2.29-2.72-1.25-5.99,7.04,1.03,14.12-1.28,21.2-1.5Z"/>
          </g>
          <path class="cls-19" d="m174.12,256.41l-1.5,4.49c-16.77.06-33.43.16-50.13-1.5-4.43,3.64-18.24,2.51-21.2-2.49,3.28.54,24.04,1.22,27.94,1,15.02-.27,29.83-1.87,44.9-1.5Z"/>
          <g>
            <path class="cls-7" d="m160.15,363.16v4.49c-12.17-.37-24.24-.58-36.42-.5v-3.99c12.13-.2,24.28.15,36.42,0Z"/>
            <path class="cls-16" d="m176.11,363.16c.24.24,3.18,1.63,4.99,4.49-6.97-.16-13.98.21-20.95,0v-4.49h15.96Z"/>
            <path class="cls-16" d="m123.73,363.16v3.99c-1.88.01-13.24,1.28-13.97.25-.12-.17-.11-3.99.25-4.24.56-.4,11.81.03,13.72,0Z"/>
          </g>
          <path class="cls-18" d="m172.62,260.9l1.5-4.49c7.12.18,15.25-1.58,9.23,4.99-.8.21-9.35-.5-10.73-.5Z"/>
          <g>
            <path class="cls-28" d="m396.6,225.48c-6.04,10.53-.92,45.81,2,58.36-.5,11.89,1.52,24.73-5.49,35.17l18.96.25c.43,7.83,1.76,16.91,2,24.19.46,14.31.06,28.82,0,43.15-.03,7.09-.87,17.73,1.5,22.7-.7,1.04-1.49.66-1.5.75-79.48-.93-158.97-.16-238.45-.5-15.97-.07-31.92-.41-47.89-.5-9.64-.05-19.29.04-28.93,0,.19-2.38,1.48-5.44,1.5-5.74.42-9.24-.56-18.48-.5-27.69.08-11.64-.04-23.28,0-34.92.05-14.63,1.17-29.22,1-43.9-.04-3.29-.99-1.68-1-2.24-.2-12.69-.27-25.48.5-38.16,1.4.31.94.49,1,.5,2.96,5,16.77,6.13,21.2,2.49,16.71,1.66,33.37,1.55,50.13,1.5,1.38,0,9.92.71,10.73.5,6.03-6.56-2.11-4.81-9.23-4.99-15.06-.37-29.88,1.22-44.9,1.5,4.22-.24,8.76-1.36,12.97-2,13.65-2.06,27.27-5.77,41.65-7.48,13.68-1.63,27.72-1.51,41.4-2.99,32.16-3.48,82.32-7.91,111.99-15.46q-47.02,17.71-94.03,35.42c-1.42,2.48,10.03,5.42,14.47,7.48,4.21,1.96,8.26,4.55,12.22,6.98-1.87-1.14-23.52-11.64-24.69-10.97-.07,9.95-.65,19.99-.25,29.93-7.08.21-14.16,2.53-21.2,1.5-1.04,3.27,1.52,2.1,1.25,5.99l-.75-1.5q-57.24.62-114.49,1.25l.75,5.24c19.36-1.03,101.27,1.75,111.49-1,.29,1.75-1.64.66-2.74,1-4.26,1.29-16.37,6.54-19.45,6.98-10.11,1.44-72.13-1.09-90.29,0-1.64.63-2.23,7.07.25,6.98l125.46,1c.55.39.14,4.03.25,4.99h-125.96l-.25,7.23q63.6.37,127.21.75c.04,1.38.45,7.92-.75,8.48q-23.57-.5-47.14-1c-13.27-6.84-11.84-4.09-1.75,3.99,8.24,6.6,19.45,10.59,29.93,11.47,9.69.82,29.25-1.88,14.47,2.99-14.65,4.83-47.39,5.01-58.86-7.48-.48,1.04,2.39,4.16,3.74,5.49h-15.96c-12.13.15-24.28-.2-36.42,0-1.9.03-13.16-.4-13.72,0-.36.25-.37,4.07-.25,4.24.73,1.03,12.09-.24,13.97-.25,12.18-.08,24.24.12,36.42.5,6.97.21,13.98-.16,20.95,0,15.4,8.04,34,12.05,50.88,6.48-10.62,5.43-27.98,13.89-39.16,16.46-10.56,2.43-19.79,1.04-13.97,3.49,12.67,5.33,65.88,6.43,80.81,4.99,14.42-1.39,31.03-6.76,43.65-13.97.37.59.55,1.43.75,1.5,4.74,1.57,86.59-2.44,99.77,0v-7.48h-91.54c2.56-1.66,4.89-4.03,7.23-5.99h1.75c10.41-1.29,78.79,1.67,82.56,0,1.22-.54.84-5.74.5-5.99-3.13-2.21-67.38,1.7-76.57,0,.11-.38-.52-.65-.5-.75.3-1.21,8.6-8.84,15.46-19.45,9.44-14.6,28.96-58.32,35.92-75.82,5.97-15.02,10.27-30.79,16.46-45.64h1.5Z"/>
            <g>
              <g>
                <path class="cls-27" d="m233.98,282.35h-124.21c-.16-2.31.35-4.28.5-6.48l123.21-.5c.39,2.47.67,4.47.5,6.98Z"/>
                <path class="cls-15" d="m233.98,282.35c-.06.87.26,4.13-.25,4.49h-123.71c-.51-.36-.19-3.62-.25-4.49h124.21Z"/>
                <path class="cls-15" d="m233.48,275.36l-123.21.5c.02-.25-1.54-3.42.25-4.99l122.72.5c.56.4.11,3.14.25,3.99Z"/>
              </g>
              <path class="cls-27" d="m110.01,392.09c10.02.63,56.2-.84,59.36,0,2.44.65,3.84,5.08,1.5,5.99-2.84,1.1-52.81-.84-60.86,0v-5.99Z"/>
              <path class="cls-16" d="m110.51,374.13c3.21-1.43,61.38,1.09,70.34,0,1,.5.95,3.8.75,4.24-1.46,3.27-63.76-1.62-71.58.25-.4-.28-.64-3.99.5-4.49Z"/>
              <path class="cls-27" d="m297.58,392.09c2.02-1.19,44.62-.58,46.89,0,2.06.53,3.51,4,2.74,5.74-1.02,2.29-44.45-.2-50.13.75-.64-.45-.04-6.16.5-6.48Z"/>
              <path class="cls-27" d="m360.43,392.09c2.06-.39,39.91-.65,41.9,0,1.66.54,2.43,5.27,1.75,6.24-1.35,1.9-41.25-1.29-46.64.75-4.25-2.19-.48-6.33,2.99-6.98Z"/>
              <path class="cls-27" d="m363.18,333.73c-.97,1.39-.85,2.29-1,2.99-.11.52-.73,3.34.25,3.49,5.45-.18,39.03-1.82,40.91-1,.87.38,1,2.7.75,3.24-1.09,2.34-45.8.16-51.63,1.25l4.99-9.98c1.78-.19,4.09.26,5.74,0Z"/>
              <path class="cls-27" d="m110.01,383.11c3.21-2.28,69.37,1.75,78.82,0l.75,2.24-79.57.25c-.41-.29-.41-2.2,0-2.49Z"/>
              <path class="cls-27" d="m343.47,355.18c7.37,1.35,58.37-1.76,60.86,0,.38.27.33,2.14.25,2.24-1.88,2.5-55.31-1.4-62.61.25l1.5-2.49Z"/>
              <path class="cls-27" d="m364.42,346.7c4.59-.19,37.8-1.14,39.41,0,.38.27.33,2.14.25,2.24-1.67,2.22-49.23-.16-55.62.75-.82-3.14,7.32-2.64,15.96-2.99Z"/>
              <path class="cls-13" d="m390.12,324.25c-.15.2-2.99,3.02-3.49,3.49-.92.86-4.78,3.7-5.99,4.49-1.03.68-4.05,2.53-4.99,2.99-3.09,1.52-12.35,6-13.47,1.5.15-.7.02-1.6,1-2.99,5.49-.87,11.1-2.65,16.21-4.99,7.89-3.61,15.65-11.25,10.73-4.49Z"/>
              <path class="cls-27" d="m375.65,335.22c.93-.46,3.96-2.32,4.99-2.99,2.83-.34,21.77-1.15,22.7-.5.4.28.64,3.99-.5,4.49-1.25.56-23.3-.42-27.44,0l.25-1Z"/>
              <path class="cls-13" d="m112.51,295.82c.71-.31,14.74-.27,15.46,0,1.66.61.92,5,.75,5.24-.47.66-15.47.58-16.21.25-1.14-.5-1.14-4.98,0-5.49Z"/>
              <path class="cls-27" d="m386.62,327.74c.5-.47,3.35-3.29,3.49-3.49,1.89.28,12.2-.37,12.72,0,.41.29.41,3.7,0,3.99-.65.46-15.19.68-15.96.5-.37-.09-.25-.66-.25-1Z"/>
              <g>
                <path class="cls-13" d="m156.16,351.69h-20.45c-3.84-.02-25.58.76-26.44-1.25-.27-.62.47-3.59.75-3.74,2.15-1.16,42.69.89,48.89,0,2.18,5.53.43,4.38-2.74,4.99Z"/>
                <path class="cls-28" d="m156.16,351.69c-6.87,1.32-13.62.03-20.45,0h20.45Z"/>
              </g>
              <path class="cls-4" d="m196.56,260.4c4.49-6.81,9.46-.74,5.24.5-1.62.48-3.69-.31-5.24-.5Z"/>
              <path class="cls-19" d="m196.56,260.4c-1.07-.13-4.45.2-4.74,0-3.72-2.63,8.11-5.92,4.74,0Z"/>
            </g>
          </g>
          <g>
            <path class="cls-13" d="m404.58,300.31c1.84,3.98,4.65,10.45,7.98,12.97.17,4-.52,5.69-.5,5.99l-18.96-.25c7.01-10.44,4.99-23.28,5.49-35.17,1.4,6.03,3.41,10.88,5.99,16.46Z"/>
            <path class="cls-33" d="m408.57,216.5l12.97,20.95c-.06,3.76,1.08,7.88.5,11.72-2.92,9.51-2.38,31.15-5.49,38.91-1,2.5-3.87,4.45-3.99,4.74l-.5-.5c2.32-4.56,10.23-45.73,9.48-49.64l-20.45-21.7c3.35-2.78,3.55-2.78,7.48-4.49Z"/>
            <path class="cls-32" d="m413.56,211.51c1.3.28,4.88.78,5.49,1-3.28,1.92-6.98,2.47-10.48,3.99-3.93,1.71-4.13,1.71-7.48,4.49-1.48,1.23-2.59,1.18-4.49,4.49h-1.5c2.27-5.44,4.47-10.66,7.98-15.46,1.1-.07,8.82,1.14,10.48,1.5Z"/>
            <path class="cls-12" d="m412.06,292.32c-.89,1.75-5.77,5.57-7.48,7.98-2.58-5.58-4.59-10.43-5.99-16.46-2.92-12.55-8.04-47.83-2-58.36,1.9-3.31,3.01-3.26,4.49-4.49l20.45,21.7c.75,3.9-7.15,45.08-9.48,49.64Z"/>
            <g>
              <path class="cls-10" d="m280.37,331.23c.64,7,2.3,14.03,3.49,20.95-4.32,2-5.74,2.38-10.48,2.99q-1-6.24-2-12.47c2.31-3.46,4.8-8.14,6.48-11.97.95.08,1.6.29,2.49.5Z"/>
              <path class="cls-24" d="m283.86,352.19c-1.19-6.92-2.85-13.95-3.49-20.95-.1-1.13-1.06-4.03-1-4.24.08-.27,3.59-3.3,4.49-1,.46,1.19,3.26,21.37,3.74,25.19-1.59.76-3.57.92-3.74,1Z"/>
              <path class="cls-24" d="m273.39,355.18c-.18.02-2.76,1.52-3.49.75l-1-8.73c.16-.2,1.02-2.28,2.49-4.49q1,6.24,2,12.47Z"/>
              <g>
                <path class="cls-3" d="m403.09,210.01c-3.52,4.8-5.71,10.02-7.98,15.46-6.2,14.85-10.49,30.62-16.46,45.64-6.95,17.5-26.47,61.22-35.92,75.82-6.87,10.62-15.16,18.25-15.46,19.45-.03.1.61.36.5.75-1.69.07-6.76,4.4-6.48,5.99h-1.75c-2.35,1.96-4.67,4.32-7.23,5.99-2.99,1.94-5.9,4.23-8.98,5.99-12.62,7.21-29.23,12.57-43.65,13.97-14.94,1.44-68.14.34-80.81-4.99-5.82-2.45,3.41-1.06,13.97-3.49,11.18-2.57,28.54-11.04,39.16-16.46,13.63-6.97,27.29-14.48,36.91-26.94l1,8.73c.73.77,3.31-.73,3.49-.75,4.73-.62,6.16-.99,10.48-2.99.18-.08,2.15-.23,3.74-1-.48-3.82-3.28-24-3.74-25.19-.9-2.3-4.41.72-4.49,1-.06.21.89,3.11,1,4.24-.9-.21-1.55-.42-2.49-.5-.07,0,.02-.85-1.25-.5-3.09.87-8.64,18.14-32.67,22.95-1.7-5.03-.18-27.3-3.24-29.43-3.74-2.61-41.01-1.47-42.9-2.49-.7-.38-.04-1.47.25-2,25.36-6.6,53.93-21.39,79.82-8.98,6.73,3.23,9.21,6.85,13.97,12.22-4.49-15.01-2.16-22.36-12.97-34.67-6.96-6.48-4.87-15.83-7.23-17.46-4.79-3.3-1.13,4.16-1.25,9.48-.12-.07-.38.07-.5,0-3.96-2.43-8.01-5.02-12.22-6.98-4.43-2.06-15.89-5.01-14.47-7.48q47.02-17.71,94.03-35.42c11.5-2.93,22.76-6.99,33.92-10.97q15.96-4.49,31.93-8.98Z"/>
                <g>
                  <path class="cls-24" d="m303.07,259.4c.62.14.85.19,1.25.75.38,9.79,17.46,74.61,15.96,78.32-.15.37-3.34,3.02-4.49.5-1.64-3.6-12.78-66.77-16.46-77.32-.19-1.22,3.53-2.29,3.74-2.24Z"/>
                  <path class="cls-24" d="m319.53,254.41q8.11,35.29,16.21,70.59c-.19,1.31-4.68,3.87-4.99,1.5-.73-9.8-15.7-65.8-15.46-69.34.19-2.78,2.49-1.69,4.24-2.74Z"/>
                  <path class="cls-24" d="m287.1,263.89c2.69.08,1.07.31,2.24,2.24,1.09,13.6,15.33,72.02,15.46,76.32.12,3.87-3.87,4.08-4.49,2.99-2.43-12.93-4.33-26.03-6.98-38.91-1.13-5.47-9.26-38.36-8.98-40.41.21-1.51,1.25-2.29,2.74-2.24Z"/>
                  <path class="cls-24" d="m334.99,249.42c1.47.18.93.06,1.75,1.25.52,9.08,11.98,52.54,11.97,55.37,0,2.63-4.34,3.63-4.99,2.49l-12.47-57.37c.08-.78,3.54-1.77,3.74-1.75Z"/>
                  <path class="cls-22" d="m352.95,243.94c1.34.48,5.1,24.58,6.73,27.69.78,2.35-3.03,4.68-4.49,2-.97-1.78-4.44-22.55-6.48-27.44-.33-1.04,4-2.33,4.24-2.24Z"/>
                  <path class="cls-22" d="m367.92,238.95c1.71-.15,1.99-.22,2.74,1.25-.28,2.22,5.29,16.44-1.25,13.22-.58-.28-3.76-11.58-3.74-12.22.04-1.48,1.12-2.15,2.24-2.24Z"/>
                  <path class="cls-22" d="m278.87,287.83c-1.82-2.08-4.83-3.52-5.74-6.48l-2.74-1.5c.12-5.32-3.54-12.78,1.25-9.48,2.36,1.63.28,10.98,7.23,17.46Z"/>
                  <path class="cls-10" d="m215.77,389.1c2.37-.94,3.27,8.36,2,8.98-3.15,1.53-3.61-8.34-2-8.98Z"/>
                  <path class="cls-25" d="m228.24,392.59c3.23-.77,6.04,2.54,2.99,4.49-3.55,2.27-6.46-3.66-2.99-4.49Z"/>
                  <path class="cls-25" d="m335.24,343.21c-6.68.07.62,7.19,0,.5,2.7,1.83.03,4.28-2.24,3.49-4.11-1.43,1.06-7.22,2.24-3.99Z"/>
                  <path class="cls-21" d="m335.24,343.21c.04.12-.02.32,0,.5.62,6.69-6.68-.42,0-.5Z"/>
                  <path class="cls-9" d="m269.15,389.6c1.63-.39,2.12,2.71,1,2.99-2.14.53-2.21-2.7-1-2.99Z"/>
                </g>
              </g>
            </g>
          </g>
        </g>
      </g>
    </g>
  </g>
</svg>