<svg width="257" height="216" viewBox="0 0 257 216" fill="none" xmlns="http://www.w3.org/2000/svg">
<rect x="70.4727" y="91.2363" width="13.5165" height="22.978" fill="white"/>
<rect x="64.3901" y="119.621" width="106.104" height="25.0055" fill="white"/>
<rect x="93.4507" y="91.2363" width="13.5165" height="22.978" fill="white"/>
<rect x="116.429" y="91.2363" width="13.5165" height="22.978" fill="white"/>
<rect x="141.434" y="91.2363" width="13.5165" height="22.978" fill="white"/>
<rect x="169.819" y="91.2363" width="13.5165" height="22.978" fill="white"/>
<rect x="192.797" y="91.2363" width="13.5165" height="22.978" fill="white"/>
<g filter="url(#filter0_d_6_723)">
<path d="M3.02522 101.551C3.02522 94.5762 4.89049 87.3178 8.62104 79.7756C12.3516 72.1523 17.0959 65.2995 22.8539 59.217C28.6119 53.1346 34.7754 47.5793 41.3444 42.5512C47.9135 37.5231 54.1986 33.6303 60.1999 30.873C66.2824 28.1156 71.2294 26.7369 75.041 26.7369C76.5008 26.7369 78.0822 27.3046 79.7853 28.44C81.5695 29.5754 82.4616 30.9135 82.4616 32.4544C82.4616 33.9142 80.9613 36.7121 77.9606 40.8481C74.9599 44.9031 71.3105 49.5257 67.0122 54.716C62.7951 59.9064 58.5374 65.2589 54.2392 70.7736C49.9409 76.2884 46.2915 81.722 43.2908 87.0745C40.2902 92.427 38.7898 96.7658 38.7898 100.091C38.7898 101.388 39.4386 102.037 40.7362 102.037C43.1692 102.037 46.8997 99.6043 51.9279 94.7384C56.956 89.7913 62.5113 83.8306 68.5937 76.856C74.7572 69.8004 81.1235 62.7854 87.6925 55.8109C94.3426 48.7553 101.155 42.7945 108.129 37.9286C115.185 32.9815 121.389 30.508 126.742 30.508C128.282 30.508 129.904 30.9541 131.608 31.8462C133.311 32.6571 134.162 33.5898 134.162 34.6441C134.162 35.6173 133.716 36.3877 132.824 36.9554C131.932 37.5231 130.391 38.3341 128.201 39.3884C126.093 40.4426 123.538 41.8213 120.538 43.5244C117.537 45.1464 113.604 47.7415 108.738 51.3099C103.872 54.7971 98.6003 58.9332 92.9233 63.718C79.3798 75.153 63.9305 90.6429 46.5753 110.188C39.6008 117.973 30.1933 121.866 18.3529 121.866H18.2313C14.6629 121.866 11.2568 119.636 8.0128 115.175C4.84994 110.634 3.18741 106.092 3.02522 101.551Z" fill="#0E1D52"/>
</g>
<g filter="url(#filter1_d_6_723)">
<path d="M9.10774 101.551C9.10774 94.5762 10.973 87.3178 14.7036 79.7756C18.4341 72.1523 23.1784 65.2995 28.9364 59.217C34.6944 53.1346 40.858 47.5793 47.427 42.5512C53.996 37.5231 60.2811 33.6303 66.2825 30.873C72.3649 28.1156 77.3119 26.7369 81.1236 26.7369C82.5833 26.7369 84.1648 27.3046 85.8678 28.44C87.652 29.5754 88.5441 30.9135 88.5441 32.4544C88.5441 33.9142 87.0438 36.7121 84.0431 40.8481C81.0425 44.9031 77.393 49.5257 73.0948 54.716C68.8776 59.9064 64.6199 65.2589 60.3217 70.7736C56.0234 76.2884 52.374 81.722 49.3733 87.0745C46.3727 92.427 44.8723 96.7658 44.8723 100.091C44.8723 101.388 45.5211 102.037 46.8187 102.037C49.2517 102.037 52.9822 99.6043 58.0104 94.7384C63.0385 89.7913 68.5938 83.8306 74.6762 76.856C80.8397 69.8004 87.206 62.7854 93.775 55.8109C100.425 48.7553 107.237 42.7945 114.212 37.9286C121.268 32.9815 127.472 30.508 132.824 30.508C134.365 30.508 135.987 30.9541 137.69 31.8462C139.393 32.6571 140.245 33.5898 140.245 34.6441C140.245 35.6173 139.799 36.3877 138.907 36.9554C138.014 37.5231 136.474 38.3341 134.284 39.3884C132.175 40.4426 129.621 41.8213 126.62 43.5244C123.619 45.1464 119.686 47.7415 114.82 51.3099C109.954 54.7971 104.683 58.9332 99.0059 63.718C85.4623 75.153 70.013 90.6429 52.6578 110.188C45.6833 117.973 36.2759 121.866 24.4354 121.866H24.3138C20.7454 121.866 17.3393 119.636 14.0953 115.175C10.9325 110.634 9.26993 106.092 9.10774 101.551Z" fill="#263A82"/>
</g>
<path d="M75.811 132.732C75.811 132.732 77.3264 132.732 80.3571 132.732C80.6253 132.732 80.6984 132.914 80.5765 133.28L80.4546 133.707C80.4384 133.763 80.3856 133.93 80.2962 134.206C80.2149 134.474 80.0484 134.933 79.7965 135.584C79.5446 136.234 79.2886 136.835 79.0286 137.387C78.7686 137.94 78.4639 138.48 78.1145 139.008C77.7733 139.536 77.4198 139.963 77.0542 140.288C76.2335 141.003 75.2625 141.361 74.1412 141.361C73.5075 141.361 72.9021 141.17 72.3252 140.788C71.2527 140.081 70.7164 138.427 70.7164 135.827C70.7164 134.462 70.9236 132.955 71.338 131.306C71.7524 129.648 72.3049 128.206 72.9956 126.979C73.6943 125.744 74.5069 124.765 75.4332 124.041C76.3595 123.31 77.3101 122.945 78.2852 122.945C78.9352 122.945 79.4877 123.123 79.9427 123.481C80.4059 123.83 80.7918 124.464 81.1006 125.382C81.4175 126.3 81.5759 126.991 81.5759 127.454C81.5759 127.917 81.4093 128.21 81.0762 128.332L80.2109 128.588C80.0402 128.628 79.898 128.604 79.7843 128.514C79.6787 128.417 79.6136 128.112 79.5893 127.6C79.5649 127.08 79.4349 126.548 79.1993 126.004C78.9717 125.451 78.667 125.13 78.2852 125.041C77.5133 124.83 76.6601 125.333 75.7257 126.552C74.7994 127.763 74.0397 129.449 73.4465 131.61C72.7234 134.218 72.5609 136.368 72.959 138.058C73.1784 139.016 73.5156 139.512 73.9706 139.545C74.84 139.642 75.5997 139.207 76.2498 138.24C76.9892 137.152 77.5498 135.88 77.9317 134.426H75.5429C75.2178 134.426 75.1163 134.194 75.2382 133.731L75.4454 133.024C75.4779 132.902 75.5185 132.825 75.5672 132.792C75.616 132.752 75.6972 132.732 75.811 132.732ZM85.7412 131.842C88.0651 128.389 89.7307 125.597 90.7383 123.469C90.8439 123.225 91.0917 123.115 91.4818 123.14L92.2618 123.237C92.4568 123.253 92.5868 123.343 92.6518 123.505C92.7249 123.668 92.6924 123.879 92.5543 124.139C90.6042 127.56 88.4551 130.83 86.1069 133.95L84.3883 140.666C84.2908 141.032 84.043 141.214 83.6449 141.214H82.9258C82.7227 141.214 82.5764 141.141 82.487 140.995C82.3976 140.841 82.3773 140.658 82.4261 140.447L84.169 133.56C84.169 132.463 84.039 130.903 83.7789 128.88C83.5271 126.849 83.3077 125.5 83.1208 124.834C82.9339 124.159 82.8973 123.716 83.0111 123.505C83.1249 123.294 83.3036 123.18 83.5474 123.164L84.2421 123.066C84.4777 123.05 84.6443 123.079 84.7418 123.152C84.8474 123.225 84.9246 123.396 84.9734 123.664C85.4934 126.743 85.7493 129.469 85.7412 131.842ZM94.5014 123.688C94.5989 123.331 94.8386 123.148 95.2205 123.14H96.0249C96.3743 123.14 96.5733 123.331 96.6221 123.712C97.0771 128.539 97.2193 132.057 97.0487 134.267L103.435 123.615C103.614 123.298 103.862 123.14 104.179 123.14H105.007C105.186 123.156 105.316 123.237 105.397 123.383C105.487 123.53 105.507 123.708 105.458 123.92L101.193 140.666C101.095 141.032 100.843 141.214 100.437 141.214H99.7178C99.5147 141.214 99.3684 141.141 99.2791 140.995C99.1897 140.841 99.1694 140.658 99.2181 140.447L102.094 129.16C101.518 130.176 100.709 131.505 99.6691 133.146C98.629 134.779 97.9709 135.819 97.6946 136.266C97.2721 136.94 96.8537 137.265 96.4393 137.241L95.9396 137.217C95.4845 137.192 95.2773 136.859 95.318 136.217C95.4317 134.454 95.383 132.045 95.1717 128.99L92.1978 140.666C92.1003 141.032 91.8525 141.214 91.4544 141.214H90.7231C90.52 141.214 90.3737 141.141 90.2843 140.995C90.195 140.841 90.1746 140.658 90.2234 140.447L94.5014 123.688ZM108.783 123.688C108.881 123.331 109.121 123.148 109.503 123.14H110.258C110.591 123.14 110.807 123.4 110.904 123.92L113.11 136.559L116.389 123.688C116.486 123.322 116.738 123.14 117.144 123.14H117.863C118.067 123.14 118.213 123.217 118.302 123.371C118.392 123.526 118.412 123.708 118.363 123.92L114.097 140.666C114 141.032 113.748 141.214 113.342 141.214H112.452C112.241 141.214 112.107 141.117 112.05 140.922C112.017 140.8 111.993 140.698 111.977 140.617C111.969 140.536 111.96 140.479 111.952 140.447L109.746 127.856L106.48 140.666C106.382 141.032 106.135 141.214 105.736 141.214H105.005C104.802 141.214 104.656 141.141 104.566 140.995C104.477 140.841 104.457 140.658 104.505 140.447L108.783 123.688ZM120.764 135.803L118.351 140.715C118.172 141.088 117.864 141.255 117.425 141.214L116.852 141.166C116.56 141.157 116.369 141.048 116.279 140.837C116.19 140.625 116.206 140.418 116.328 140.215L124.64 124.188C124.99 123.521 125.449 123.188 126.017 123.188L127.017 123.164C127.318 123.164 127.553 123.266 127.724 123.469C127.894 123.672 127.968 123.972 127.943 124.371L127.066 140.666C127.049 141.032 126.802 141.214 126.322 141.214L125.469 141.19C125.063 141.19 124.872 140.967 124.896 140.52L125.213 135.803H120.764ZM121.654 133.999H125.335L125.908 125.321L121.654 133.999ZM136.731 122.871C137.812 122.871 138.576 123.314 139.023 124.2C139.47 125.086 139.693 126.357 139.693 128.015C139.693 128.429 139.555 128.677 139.279 128.758L138.401 129.039C138.263 129.079 138.129 129.055 137.999 128.965C137.869 128.876 137.804 128.726 137.804 128.514C137.804 126.313 137.446 125.045 136.731 124.712C136.398 124.541 136 124.57 135.537 124.797C135.074 125.017 134.603 125.553 134.123 126.406C133.644 127.251 133.388 128.218 133.355 129.307C133.339 129.745 133.412 130.083 133.575 130.318C133.737 130.546 134.054 130.741 134.525 130.903L135.549 131.257C136.532 131.59 137.178 131.996 137.487 132.476C137.763 132.914 137.902 133.625 137.902 134.608C137.902 135.584 137.637 136.632 137.109 137.753C136.589 138.874 135.882 139.801 134.989 140.532C134.095 141.255 133.16 141.617 132.185 141.617C130.219 141.617 129.236 140.02 129.236 136.827V136.741C129.236 136.108 129.362 135.758 129.614 135.693L130.54 135.401C130.702 135.336 130.837 135.348 130.942 135.437C131.056 135.527 131.113 135.673 131.113 135.876C131.113 137.184 131.19 138.171 131.344 138.838C131.499 139.496 131.755 139.914 132.112 140.093C132.364 140.15 132.689 140.093 133.087 139.922C133.762 139.622 134.367 139 134.903 138.058C135.561 136.92 135.878 135.632 135.854 134.194C135.846 133.755 135.602 133.406 135.123 133.146C134.879 133.024 134.534 132.894 134.087 132.756L133.038 132.427C132.567 132.289 132.161 132.025 131.82 131.635C131.478 131.245 131.308 130.716 131.308 130.05C131.308 129.384 131.442 128.628 131.71 127.783C131.986 126.93 132.352 126.138 132.807 125.407C133.27 124.675 133.847 124.07 134.538 123.591C135.236 123.111 135.968 122.871 136.731 122.871ZM151.559 124.943C151.559 124.943 150.283 124.943 147.732 124.943L143.71 140.666C143.612 141.032 143.365 141.214 142.966 141.214H142.247C142.044 141.214 141.898 141.141 141.809 140.995C141.719 140.841 141.699 140.658 141.748 140.447L145.697 124.943H141.748C141.276 124.943 141.094 124.752 141.199 124.371L141.37 123.639C141.419 123.428 141.492 123.294 141.589 123.237C141.695 123.172 141.87 123.14 142.113 123.14H151.852C152.355 123.14 152.554 123.375 152.449 123.846L152.327 124.419C152.262 124.769 152.006 124.943 151.559 124.943ZM154.349 123.688C154.446 123.322 154.694 123.14 155.092 123.14H155.824C156.027 123.14 156.169 123.217 156.25 123.371C156.339 123.526 156.36 123.708 156.311 123.92L152.045 140.666C151.948 141.032 151.7 141.214 151.302 141.214H150.57C150.367 141.214 150.221 141.141 150.132 140.995C150.042 140.841 150.022 140.658 150.071 140.447L154.349 123.688ZM159.893 123.688C159.99 123.322 160.238 123.14 160.636 123.14H161.367C161.571 123.14 161.713 123.217 161.794 123.371C161.883 123.526 161.904 123.708 161.855 123.92L160.088 130.842L166.084 123.542C166.295 123.274 166.568 123.14 166.901 123.14H167.949C168.168 123.14 168.31 123.213 168.375 123.359C168.449 123.505 168.416 123.668 168.278 123.846L161.465 131.927L164.012 140.471C164.167 140.967 164.024 141.214 163.586 141.214H162.659C162.424 141.214 162.265 141.174 162.184 141.092C162.103 141.003 162.03 140.837 161.965 140.593L159.612 132.707L157.589 140.666C157.492 141.032 157.244 141.214 156.846 141.214H156.114C155.911 141.214 155.765 141.141 155.676 140.995C155.586 140.841 155.566 140.658 155.615 140.447L159.893 123.688Z" fill="#0E1D52"/>
<g filter="url(#filter2_i_6_723)">
<path d="M79.1606 89.9186C80.4938 89.9186 81.7015 90.1166 82.7839 90.5126C83.8663 90.9086 84.7837 91.4497 85.536 92.1361C86.3016 92.8225 86.889 93.6277 87.2982 94.5517C87.7074 95.4625 87.912 96.4326 87.912 97.4622V109.5C87.912 110.53 87.7074 111.507 87.2982 112.431C86.889 113.341 86.3016 114.14 85.536 114.826C84.7837 115.513 83.8663 116.054 82.7839 116.45C81.7015 116.846 80.4938 117.044 79.1606 117.044H73.0623C71.7292 117.044 70.5214 116.846 69.439 116.45C68.3566 116.054 67.4327 115.513 66.6671 114.826C65.9147 114.14 65.3339 113.341 64.9247 112.431C64.5155 111.507 64.3109 110.53 64.3109 109.5V97.4622C64.3109 96.4326 64.5155 95.4625 64.9247 94.5517C65.3339 93.6277 65.9147 92.8225 66.6671 92.1361C67.4327 91.4497 68.3566 90.9086 69.439 90.5126C70.5214 90.1166 71.7292 89.9186 73.0623 89.9186H79.1606ZM80.9821 108.075H83.2393L81.6751 93.3241L80.4476 92.0965L77.8142 91.7005H75.6957L73.0623 92.0965L71.8546 93.3241L70.231 108.075H72.5871L72.9039 103.857L73.1019 102.036H80.408L80.606 103.857L80.9821 108.075ZM79.5962 94.0963C79.6886 95.1655 79.7942 96.1752 79.913 97.1256C80.0318 98.076 80.144 99.0792 80.2496 100.135H73.2801L73.8741 94.0963C74.2437 94.0567 74.5605 94.0105 74.8245 93.9577C75.1017 93.9049 75.4251 93.8521 75.7947 93.7993H77.735L79.5962 94.0963ZM104.9 105.976H98.8215V91.7005H96.7228V108.075H104.9V105.976ZM102.603 89.9186C103.936 89.9186 105.144 90.1166 106.227 90.5126C107.309 90.9086 108.226 91.4497 108.979 92.1361C109.744 92.8225 110.332 93.6277 110.741 94.5517C111.15 95.4625 111.355 96.4326 111.355 97.4622V109.5C111.355 110.53 111.15 111.507 110.741 112.431C110.332 113.341 109.744 114.14 108.979 114.826C108.226 115.513 107.309 116.054 106.227 116.45C105.144 116.846 103.936 117.044 102.603 117.044H96.505C95.1718 117.044 93.964 116.846 92.8817 116.45C91.7993 116.054 90.8753 115.513 90.1097 114.826C89.3573 114.14 88.7766 113.341 88.3674 112.431C87.9582 111.507 87.7536 110.53 87.7536 109.5V97.4622C87.7536 96.4326 87.9582 95.4625 88.3674 94.5517C88.7766 93.6277 89.3573 92.8225 90.1097 92.1361C90.8753 91.4497 91.7993 90.9086 92.8817 90.5126C93.964 90.1166 95.1718 89.9186 96.505 89.9186H102.603ZM126.046 89.9186C127.379 89.9186 128.587 90.1166 129.669 90.5126C130.752 90.9086 131.669 91.4497 132.421 92.1361C133.187 92.8225 133.774 93.6277 134.183 94.5517C134.593 95.4625 134.797 96.4326 134.797 97.4622V109.5C134.797 110.53 134.593 111.507 134.183 112.431C133.774 113.341 133.187 114.14 132.421 114.826C131.669 115.513 130.752 116.054 129.669 116.45C128.587 116.846 127.379 117.044 126.046 117.044H119.948C118.614 117.044 117.407 116.846 116.324 116.45C115.242 116.054 114.318 115.513 113.552 114.826C112.8 114.14 112.219 113.341 111.81 112.431C111.401 111.507 111.196 110.53 111.196 109.5V97.4622C111.196 96.4326 111.401 95.4625 111.81 94.5517C112.219 93.6277 112.8 92.8225 113.552 92.1361C114.318 91.4497 115.242 90.9086 116.324 90.5126C117.407 90.1166 118.614 89.9186 119.948 89.9186H126.046ZM129.234 101.798L128.857 100.333L127.273 99.6402L128.857 99.0462L129.234 97.5414V94.9081L128.956 93.2449L127.709 91.9777L125.67 91.7005H117.354V108.075H125.67L127.709 107.837L128.956 106.59L129.234 104.927V101.798ZM126.858 105.778L125.551 105.976H119.472V100.749H125.59L126.937 100.907L127.135 102.075V104.709L126.858 105.778ZM126.858 98.4324L125.551 98.67H119.472V93.7993H125.551L126.937 94.0171L126.858 95.1853L127.135 97.383L126.858 98.4324ZM143.806 91.7005H141.331L146.281 103.461V108.075H148.38V103.501L153.409 91.7005H150.934L147.33 100.591L143.806 91.7005ZM149.489 89.9186C150.822 89.9186 152.029 90.1166 153.112 90.5126C154.194 90.9086 155.112 91.4497 155.864 92.1361C156.63 92.8225 157.217 93.6277 157.626 94.5517C158.035 95.4625 158.24 96.4326 158.24 97.4622V109.5C158.24 110.53 158.035 111.507 157.626 112.431C157.217 113.341 156.63 114.14 155.864 114.826C155.112 115.513 154.194 116.054 153.112 116.45C152.029 116.846 150.822 117.044 149.489 117.044H143.39C142.057 117.044 140.849 116.846 139.767 116.45C138.685 116.054 137.761 115.513 136.995 114.826C136.243 114.14 135.662 113.341 135.253 112.431C134.843 111.507 134.639 110.53 134.639 109.5V97.4622C134.639 96.4326 134.843 95.4625 135.253 94.5517C135.662 93.6277 136.243 92.8225 136.995 92.1361C137.761 91.4497 138.685 90.9086 139.767 90.5126C140.849 90.1166 142.057 89.9186 143.39 89.9186H149.489ZM171.11 105.976V108.075H182.554V105.976H177.901V93.7993H182.554V91.7005H171.11V93.7993H175.782V105.976H171.11ZM178.792 89.9186C180.125 89.9186 181.333 90.1166 182.415 90.5126C183.498 90.9086 184.415 91.4497 185.167 92.1361C185.933 92.8225 186.52 93.6277 186.929 94.5517C187.339 95.4625 187.543 96.4326 187.543 97.4622V109.5C187.543 110.53 187.339 111.507 186.929 112.431C186.52 113.341 185.933 114.14 185.167 114.826C184.415 115.513 183.498 116.054 182.415 116.45C181.333 116.846 180.125 117.044 178.792 117.044H172.694C171.36 117.044 170.153 116.846 169.07 116.45C167.988 116.054 167.064 115.513 166.298 114.826C165.546 114.14 164.965 113.341 164.556 112.431C164.147 111.507 163.942 110.53 163.942 109.5V97.4622C163.942 96.4326 164.147 95.4625 164.556 94.5517C164.965 93.6277 165.546 92.8225 166.298 92.1361C167.064 91.4497 167.988 90.9086 169.07 90.5126C170.153 90.1166 171.36 89.9186 172.694 89.9186H178.792ZM204.056 98.5116H197.443V93.7993H205.185V91.7005H195.324V108.075H197.443V100.591H204.056V98.5116ZM202.234 89.9186C203.568 89.9186 204.775 90.1166 205.858 90.5126C206.94 90.9086 207.858 91.4497 208.61 92.1361C209.376 92.8225 209.963 93.6277 210.372 94.5517C210.781 95.4625 210.986 96.4326 210.986 97.4622V109.5C210.986 110.53 210.781 111.507 210.372 112.431C209.963 113.341 209.376 114.14 208.61 114.826C207.858 115.513 206.94 116.054 205.858 116.45C204.775 116.846 203.568 117.044 202.234 117.044H196.136C194.803 117.044 193.595 116.846 192.513 116.45C191.431 116.054 190.507 115.513 189.741 114.826C188.989 114.14 188.408 113.341 187.999 112.431C187.589 111.507 187.385 110.53 187.385 109.5V97.4622C187.385 96.4326 187.589 95.4625 187.999 94.5517C188.408 93.6277 188.989 92.8225 189.741 92.1361C190.507 91.4497 191.431 90.9086 192.513 90.5126C193.595 90.1166 194.803 89.9186 196.136 89.9186H202.234Z" fill="#0E1D52"/>
</g>
<defs>
<filter id="filter0_d_6_723" x="0.322094" y="26.7368" width="136.543" height="100.536" filterUnits="userSpaceOnUse" color-interpolation-filters="sRGB">
<feFlood flood-opacity="0" result="BackgroundImageFix"/>
<feColorMatrix in="SourceAlpha" type="matrix" values="0 0 0 0 0 0 0 0 0 0 0 0 0 0 0 0 0 0 127 0" result="hardAlpha"/>
<feOffset dy="2.7033"/>
<feGaussianBlur stdDeviation="1.35165"/>
<feComposite in2="hardAlpha" operator="out"/>
<feColorMatrix type="matrix" values="0 0 0 0 0 0 0 0 0 0 0 0 0 0 0 0 0 0 0.25 0"/>
<feBlend mode="normal" in2="BackgroundImageFix" result="effect1_dropShadow_6_723"/>
<feBlend mode="normal" in="SourceGraphic" in2="effect1_dropShadow_6_723" result="shape"/>
</filter>
<filter id="filter1_d_6_723" x="6.40461" y="26.7368" width="136.543" height="100.536" filterUnits="userSpaceOnUse" color-interpolation-filters="sRGB">
<feFlood flood-opacity="0" result="BackgroundImageFix"/>
<feColorMatrix in="SourceAlpha" type="matrix" values="0 0 0 0 0 0 0 0 0 0 0 0 0 0 0 0 0 0 127 0" result="hardAlpha"/>
<feOffset dy="2.7033"/>
<feGaussianBlur stdDeviation="1.35165"/>
<feComposite in2="hardAlpha" operator="out"/>
<feColorMatrix type="matrix" values="0 0 0 0 0 0 0 0 0 0 0 0 0 0 0 0 0 0 0.25 0"/>
<feBlend mode="normal" in2="BackgroundImageFix" result="effect1_dropShadow_6_723"/>
<feBlend mode="normal" in="SourceGraphic" in2="effect1_dropShadow_6_723" result="shape"/>
</filter>
<filter id="filter2_i_6_723" x="64.311" y="89.9187" width="146.675" height="29.8285" filterUnits="userSpaceOnUse" color-interpolation-filters="sRGB">
<feFlood flood-opacity="0" result="BackgroundImageFix"/>
<feBlend mode="normal" in="SourceGraphic" in2="BackgroundImageFix" result="shape"/>
<feColorMatrix in="SourceAlpha" type="matrix" values="0 0 0 0 0 0 0 0 0 0 0 0 0 0 0 0 0 0 127 0" result="hardAlpha"/>
<feOffset dy="2.7033"/>
<feGaussianBlur stdDeviation="1.35165"/>
<feComposite in2="hardAlpha" operator="arithmetic" k2="-1" k3="1"/>
<feColorMatrix type="matrix" values="0 0 0 0 0 0 0 0 0 0 0 0 0 0 0 0 0 0 0.25 0"/>
<feBlend mode="normal" in2="shape" result="effect1_innerShadow_6_723"/>
</filter>
</defs>
</svg>
